<svg width="24" height="24" viewBox="0 0 24 25" fill="none" xmlns="http://www.w3.org/2000/svg">
<path d="M21 19.7447H5V3.74468C5 3.47946 4.89464 3.22511 4.7071 3.03757C4.51957 2.85003 4.26521 2.74468 4 2.74468C3.73478 2.74468 3.48043 2.85003 3.29289 3.03757C3.10535 3.22511 3 3.47946 3 3.74468V20.7447C3 21.0099 3.10535 21.2642 3.29289 21.4518C3.48043 21.6393 3.73478 21.7447 4 21.7447H21C21.2652 21.7447 21.5196 21.6393 21.7071 21.4518C21.8946 21.2642 22 21.0099 22 20.7447C22 20.4795 21.8946 20.2251 21.7071 20.0376C21.5196 19.85 21.2652 19.7447 21 19.7447Z" fill="#5F6368"/>
<path d="M7.00002 11.7447V16.7447C7.00002 17.0099 7.10538 17.2643 7.29292 17.4518C7.48045 17.6393 7.73481 17.7447 8.00002 17.7447C8.26524 17.7447 8.51959 17.6393 8.70713 17.4518C8.89467 17.2643 9.00002 17.0099 9.00002 16.7447V11.7447C9.00002 11.4795 8.89467 11.2251 8.70713 11.0376C8.51959 10.8501 8.26524 10.7447 8.00002 10.7447C7.73481 10.7447 7.48045 10.8501 7.29292 11.0376C7.10538 11.2251 7.00002 11.4795 7.00002 11.7447Z" fill="#5F6368"/>
<path d="M11 6.74468V16.7447C11 17.0099 11.1053 17.2642 11.2929 17.4518C11.4804 17.6393 11.7348 17.7447 12 17.7447C12.2652 17.7447 12.5195 17.6393 12.7071 17.4518C12.8946 17.2642 13 17.0099 13 16.7447V6.74468C13 6.47946 12.8946 6.22511 12.7071 6.03757C12.5195 5.85004 12.2652 5.74468 12 5.74468C11.7348 5.74468 11.4804 5.85004 11.2929 6.03757C11.1053 6.22511 11 6.47946 11 6.74468Z" fill="#5F6368"/>
<path d="M15 8.7447V16.7447C15 17.0099 15.1054 17.2643 15.2929 17.4518C15.4804 17.6393 15.7348 17.7447 16 17.7447C16.2652 17.7447 16.5196 17.6393 16.7071 17.4518C16.8946 17.2643 17 17.0099 17 16.7447V8.7447C17 8.47948 16.8946 8.22513 16.7071 8.03759C16.5196 7.85005 16.2652 7.7447 16 7.7447C15.7348 7.7447 15.4804 7.85005 15.2929 8.03759C15.1054 8.22513 15 8.47948 15 8.7447Z" fill="#5F6368"/>
<path d="M19 3.74468V16.7447C19 17.0099 19.1054 17.2642 19.2929 17.4518C19.4805 17.6393 19.7348 17.7447 20 17.7447C20.2652 17.7447 20.5196 17.6393 20.7071 17.4518C20.8947 17.2642 21 17.0099 21 16.7447V3.74468C21 3.47946 20.8947 3.22511 20.7071 3.03757C20.5196 2.85003 20.2652 2.74468 20 2.74468C19.7348 2.74468 19.4805 2.85003 19.2929 3.03757C19.1054 3.22511 19 3.47946 19 3.74468V3.74468Z" fill="#5F6368"/>
</svg>
