<svg width="20" height="20" viewBox="0 0 80 80" fill="none" xmlns="http://www.w3.org/2000/svg">
<path d="M39.913 19.9565C52.5189 19.9565 63.7611 27.0411 69.2491 38.25C67.2867 42.3078 64.5261 45.8002 61.2333 48.6274L65.923 53.3172C70.5463 49.2261 74.205 44.1039 76.5 38.25C70.7459 23.6485 56.5435 13.3043 39.913 13.3043C35.6889 13.3043 31.6311 13.9696 27.8061 15.2002L33.2941 20.6883C35.4561 20.2559 37.6513 19.9565 39.913 19.9565ZM36.3541 23.7483L43.2391 30.6333C45.135 31.4648 46.665 32.9948 47.4965 34.8906L54.3815 41.7757C54.6476 40.6448 54.8472 39.4474 54.8472 38.2167C54.8804 29.968 48.1617 23.2826 39.913 23.2826C38.6824 23.2826 37.5183 23.4489 36.3541 23.7483ZM6.68544 12.872L15.5993 21.7859C10.1778 26.0433 5.88717 31.6976 3.32609 38.25C9.08022 52.8515 23.2826 63.1956 39.913 63.1956C44.9687 63.1956 49.8248 62.2311 54.2817 60.4683L65.657 71.8435L70.3467 67.1537L11.3752 8.14891L6.68544 12.872ZM31.6311 37.8176L40.3122 46.4987C40.1791 46.532 40.0461 46.5652 39.913 46.5652C35.323 46.5652 31.5978 42.84 31.5978 38.25C31.5978 38.0837 31.6311 37.9839 31.6311 37.8176ZM20.3224 26.5089L26.143 32.3296C25.378 34.1589 24.9457 36.1546 24.9457 38.25C24.9457 46.4987 31.6643 53.2174 39.913 53.2174C42.0085 53.2174 44.0041 52.785 45.8002 52.02L49.0598 55.2796C46.1328 56.0778 43.0728 56.5435 39.913 56.5435C27.3072 56.5435 16.065 49.4589 10.577 38.25C12.9052 33.4937 16.2978 29.5689 20.3224 26.5089Z" fill="#555"/>
</svg>
