<svg width="20" height="20" viewBox="0 0 80 80" fill="none" xmlns="http://www.w3.org/2000/svg">
<path d="M39.913 19.9565C52.5189 19.9565 63.7611 27.0411 69.2491 38.25C63.7611 49.4589 52.5189 56.5435 39.913 56.5435C27.3072 56.5435 16.065 49.4589 10.577 38.25C16.065 27.0411 27.3072 19.9565 39.913 19.9565ZM39.913 13.3043C23.2826 13.3043 9.08022 23.6485 3.32609 38.25C9.08022 52.8515 23.2826 63.1956 39.913 63.1956C56.5435 63.1956 70.7459 52.8515 76.5 38.25C70.7459 23.6485 56.5435 13.3043 39.913 13.3043ZM39.913 29.9348C44.503 29.9348 48.2283 33.66 48.2283 38.25C48.2283 42.84 44.503 46.5652 39.913 46.5652C35.323 46.5652 31.5978 42.84 31.5978 38.25C31.5978 33.66 35.323 29.9348 39.913 29.9348ZM39.913 23.2826C31.6643 23.2826 24.9457 30.0013 24.9457 38.25C24.9457 46.4987 31.6643 53.2174 39.913 53.2174C48.1617 53.2174 54.8804 46.4987 54.8804 38.25C54.8804 30.0013 48.1617 23.2826 39.913 23.2826Z" fill="#555"/>
</svg>
