<svg width="14" height="14" viewBox="0 0 7 6" fill="none" xmlns="http://www.w3.org/2000/svg">
<path d="M3.48276 1.6451H3.95279V2.11513H3.48276V1.6451ZM3.71777 3.99525C3.84703 3.99525 3.95279 3.88949 3.95279 3.76023V2.82017C3.95279 2.69092 3.84703 2.58516 3.71777 2.58516C3.58851 2.58516 3.48276 2.69092 3.48276 2.82017V3.76023C3.48276 3.88949 3.58851 3.99525 3.71777 3.99525ZM3.71777 0.470029C2.42049 0.470029 1.36763 1.52289 1.36763 2.82017C1.36763 4.11745 2.42049 5.17032 3.71777 5.17032C5.01505 5.17032 6.06792 4.11745 6.06792 2.82017C6.06792 1.52289 5.01505 0.470029 3.71777 0.470029ZM3.71777 4.70029C2.68136 4.70029 1.83766 3.85659 1.83766 2.82017C1.83766 1.78376 2.68136 0.940058 3.71777 0.940058C4.75419 0.940058 5.59789 1.78376 5.59789 2.82017C5.59789 3.85659 4.75419 4.70029 3.71777 4.70029Z" fill="#555"/>
</svg>
